<svg width="20" height="20" viewBox="0 0 20 20" fill="none" xmlns="http://www.w3.org/2000/svg">
<path d="M2 12.3667C2 12.5325 2.06585 12.6914 2.18306 12.8086C2.30027 12.9258 2.45924 12.9917 2.625 12.9917H14.8663L12.1838 15.6742C12.0699 15.7921 12.0069 15.9499 12.0083 16.1138C12.0098 16.2777 12.0755 16.4345 12.1914 16.5503C12.3072 16.6662 12.464 16.7319 12.6279 16.7334C12.7917 16.7348 12.9496 16.6718 13.0675 16.5579L16.8175 12.8079C16.8753 12.7504 16.9212 12.6821 16.9525 12.6068C16.9839 12.5315 17 12.4507 17 12.3692V12.3667C17 12.2854 16.9838 12.2042 16.9513 12.1279C16.9201 12.0522 16.8742 11.9833 16.8162 11.9254L13.0663 8.17544C12.9484 8.0616 12.7905 7.9986 12.6266 8.00002C12.4628 8.00145 12.306 8.06718 12.1901 8.18306C12.0742 8.29894 12.0085 8.4557 12.0071 8.61957C12.0057 8.78344 12.0687 8.94132 12.1825 9.0592L14.8663 11.7417H2.625C2.45924 11.7417 2.30027 11.8075 2.18306 11.9248C2.06585 12.042 2 12.2009 2 12.3667Z" fill="white"/>
</svg>
