<svg width="27" height="24" viewBox="0 0 27 24" fill="none" xmlns="http://www.w3.org/2000/svg">
<g clip-path="url(#clip0_1_4810)">
<path d="M15.4726 12.3299L14.4372 11.3887C14.5501 11.1774 14.6491 10.9603 14.7336 10.7382H16.1979C16.679 10.7382 17.0692 10.3835 17.0692 9.94602V7.62384C17.0692 7.18643 16.6791 6.83168 16.1979 6.83168H14.7335C14.649 6.60962 14.55 6.39257 14.4372 6.18125L15.4726 5.23992C15.8129 4.93059 15.8129 4.42901 15.4726 4.11968L13.6664 2.47766C13.326 2.16841 12.7745 2.16841 12.4341 2.47766L11.3987 3.41899C11.1662 3.31637 10.9276 3.22635 10.6832 3.14958V1.81835C10.6832 1.38093 10.2931 1.02618 9.81182 1.02618H7.25742C6.77627 1.02618 6.38605 1.38085 6.38605 1.81835V3.14958C6.14178 3.22643 5.90302 3.31629 5.67058 3.41899L4.6352 2.47766C4.47182 2.32913 4.25013 2.24566 4.01902 2.24566C3.78791 2.24566 3.56631 2.32913 3.40284 2.47766L1.59653 4.11968C1.43316 4.2682 1.34133 4.46974 1.34133 4.67984C1.34133 4.88994 1.43316 5.0914 1.59653 5.24L2.632 6.18134C2.51911 6.39257 2.42009 6.60962 2.33564 6.83176H0.871378C0.390133 6.83176 0 7.18643 0 7.62384V9.9461C0 10.3835 0.390133 10.7383 0.871378 10.7383H2.33564C2.42027 10.9603 2.51911 11.1774 2.63209 11.3888L1.59662 12.33C1.25636 12.6394 1.25636 13.1409 1.59662 13.4503L3.40284 15.0923C3.7432 15.4015 4.29476 15.4016 4.63511 15.0923L5.67058 14.151C5.90293 14.2537 6.14178 14.3437 6.38605 14.4204V15.7517C6.38605 16.1891 6.77618 16.5438 7.25742 16.5438H9.81191C10.2931 16.5438 10.6833 16.1892 10.6833 15.7517V14.4204C10.9275 14.3436 11.1663 14.2537 11.3988 14.151L12.4342 15.0923C12.7746 15.4015 13.3261 15.4015 13.6665 15.0923L15.4727 13.4503C15.813 13.1409 15.813 12.6393 15.4726 12.3299ZM13.2292 9.76889C13.1092 10.244 12.904 10.6941 12.6194 11.1069C12.4036 11.4197 12.4544 11.8267 12.7416 12.0877L13.6243 12.8901L13.0503 13.412L12.1676 12.6095C11.8803 12.3484 11.4328 12.3025 11.0887 12.4983C10.6345 12.7572 10.1394 12.9437 9.61707 13.0526C9.22116 13.1352 8.94062 13.4555 8.94062 13.8247V14.9595H8.12889V13.8247C8.12889 13.4555 7.84836 13.1353 7.45245 13.0526C6.93013 12.9437 6.43502 12.7572 5.9808 12.4983C5.63698 12.3025 5.18924 12.3483 4.90196 12.6095L4.0192 13.412L3.44524 12.8901L4.32791 12.0877C4.61511 11.8266 4.66578 11.4197 4.45013 11.1069C4.16551 10.6941 3.96036 10.244 3.84036 9.76889C3.74951 9.40905 3.39724 9.15402 2.99111 9.15402H1.74267V8.41608H2.99084C3.39689 8.41608 3.74916 8.16105 3.84009 7.8013C3.96018 7.32614 4.16525 6.87604 4.44987 6.46336C4.66569 6.15055 4.61493 5.7436 4.32773 5.48251L3.44498 4.68L4.01902 4.15822L4.90169 4.96073C5.18889 5.2219 5.63662 5.26772 5.98062 5.07176C6.43467 4.81301 6.92978 4.62659 7.45218 4.51758C7.84809 4.43499 8.12862 4.11467 8.12862 3.74546V2.61051H8.94036V3.7453C8.94036 4.11451 9.22089 4.43475 9.6168 4.51742C10.1393 4.62643 10.6343 4.81285 11.0884 5.0716C11.4324 5.26772 11.8802 5.22182 12.1673 4.96057L13.05 4.15806L13.624 4.67984L12.7412 5.48235C12.454 5.74352 12.4034 6.15039 12.6191 6.46319C12.9037 6.87588 13.1088 7.32606 13.2289 7.80113C13.3197 8.16089 13.6721 8.41592 14.0781 8.41592H15.3263V9.15386H14.0781C13.6722 9.15394 13.32 9.40897 13.2292 9.76889Z" fill="white" fill-opacity="0.87"/>
<path d="M8.53457 5.74103C6.68826 5.74103 5.18622 7.10652 5.18622 8.78499C5.18622 10.4635 6.68826 11.8289 8.53457 11.8289C10.3809 11.8289 11.8829 10.4635 11.8829 8.78499C11.8829 7.10652 10.381 5.74103 8.53457 5.74103ZM8.53457 10.2447C7.64915 10.2447 6.92888 9.58992 6.92888 8.78499C6.92888 7.98006 7.64924 7.32527 8.53457 7.32527C9.41991 7.32527 10.1403 7.98006 10.1403 8.78499C10.1403 9.58992 9.42 10.2447 8.53457 10.2447Z" fill="white" fill-opacity="0.87"/>
<path d="M25.8292 17.8656C26.2078 17.8021 26.4581 17.4717 26.3883 17.1275L26.0595 15.5071C26.026 15.3417 25.9215 15.1954 25.7693 15.1001C25.6171 15.0048 25.4292 14.9684 25.2476 14.9989L24.2804 15.161C24.2055 15.044 24.1244 14.9303 24.0375 14.8202L24.5951 14.084C24.6999 13.9454 24.74 13.7749 24.7065 13.6096C24.673 13.4443 24.5685 13.2979 24.4163 13.2027L22.9233 12.2682C22.6065 12.0698 22.1723 12.1424 21.954 12.4307L21.3963 13.167C21.2522 13.1324 21.1065 13.1042 20.9595 13.0823L20.7811 12.2032C20.7112 11.8591 20.3473 11.6313 19.9692 11.695L18.1867 11.9939C18.0048 12.0244 17.8438 12.1193 17.739 12.2577C17.6342 12.3962 17.5941 12.5668 17.6277 12.732L17.8061 13.6112C17.6773 13.6794 17.5522 13.7531 17.4311 13.8321L16.6213 13.3252C16.4689 13.2299 16.2813 13.1936 16.0995 13.2239C15.9176 13.2544 15.7566 13.3493 15.6518 13.4878L14.6239 14.845C14.519 14.9834 14.479 15.154 14.5125 15.3193C14.5461 15.4846 14.6505 15.631 14.8028 15.7263L15.6126 16.2331C15.5746 16.3642 15.5436 16.4966 15.5195 16.6303L14.5524 16.7925C14.3705 16.8229 14.2095 16.9179 14.1047 17.0562C13.9998 17.1947 13.9598 17.3653 13.9933 17.5306L14.3222 19.151C14.3921 19.4952 14.7555 19.7231 15.1341 19.6592L16.1013 19.497C16.1762 19.6141 16.2573 19.7278 16.3442 19.8379L15.7866 20.5741C15.6818 20.7126 15.6417 20.8831 15.6752 21.0484C15.7087 21.2137 15.8132 21.3601 15.9654 21.4553L17.4584 22.3898C17.7752 22.5882 18.2095 22.5155 18.4277 22.2273L18.9853 21.4911C19.1294 21.5256 19.2751 21.5538 19.4222 21.5758L19.6006 22.4549C19.6626 22.7602 19.9557 22.9737 20.2853 22.9737C20.3273 22.9737 20.3699 22.9703 20.4125 22.9631L22.195 22.6642C22.3769 22.6338 22.5379 22.5388 22.6427 22.4005C22.7475 22.262 22.7876 22.0914 22.754 21.9261L22.5756 21.0469C22.7044 20.9787 22.8295 20.905 22.9506 20.8261L23.7604 21.333C23.9127 21.4284 24.1002 21.4648 24.2821 21.4343C24.464 21.4038 24.625 21.3088 24.7298 21.1704L25.7577 19.8132C25.976 19.5249 25.896 19.1304 25.5789 18.932L24.7691 18.425C24.8071 18.294 24.8381 18.1615 24.8622 18.0279L25.8292 17.8656ZM24.0972 16.8674C23.7776 16.921 23.5412 17.1682 23.5273 17.4633C23.5113 17.8007 23.4338 18.1309 23.2969 18.4449C23.1772 18.7195 23.282 19.0329 23.5496 19.2004L24.2142 19.6165L23.9769 19.9299L23.3124 19.5139C23.0445 19.3463 22.6852 19.3691 22.4459 19.5688C22.172 19.7971 21.8603 19.9808 21.5193 20.1147C21.221 20.2319 21.0513 20.521 21.1102 20.8114L21.2566 21.533L20.8452 21.602L20.6988 20.8805C20.6398 20.59 20.3679 20.375 20.0433 20.3623C19.6719 20.3477 19.3086 20.2772 18.9633 20.1529C18.8796 20.1227 18.7927 20.1083 18.7068 20.1083C18.4827 20.1083 18.2655 20.2069 18.1324 20.3826L17.6748 20.9868L17.3301 20.7711L17.7877 20.1669C17.9719 19.9236 17.9469 19.5969 17.7272 19.3792C17.4761 19.1303 17.2741 18.8469 17.1266 18.5367C16.9976 18.2656 16.6789 18.1113 16.3603 18.165L15.5666 18.2981L15.4906 17.924L16.2844 17.7909C16.604 17.7374 16.8405 17.4901 16.8543 17.195C16.8703 16.8576 16.9478 16.5274 17.0847 16.2132C17.2045 15.9387 17.0996 15.6254 16.8319 15.4578L16.1673 15.0419L16.4046 14.7285L17.0693 15.1445C17.3371 15.3122 17.6963 15.2892 17.9357 15.0895C18.2096 14.8612 18.5213 14.6776 18.8625 14.5435C19.1606 14.4263 19.3303 14.1373 19.2714 13.8469L19.125 13.1253L19.5365 13.0563L19.6829 13.7779C19.7418 14.0684 20.0138 14.2834 20.3384 14.296C20.7095 14.3105 21.0727 14.381 21.4181 14.5054C21.7204 14.6144 22.065 14.5189 22.2492 14.2757L22.7068 13.6714L23.0516 13.8872L22.594 14.4914C22.4097 14.7348 22.4348 15.0615 22.6544 15.2792C22.9055 15.5281 23.1076 15.8114 23.2549 16.1214C23.3837 16.3926 23.702 16.547 24.0212 16.4933L24.815 16.3602L24.8909 16.7343L24.0972 16.8674Z" fill="white" fill-opacity="0.87"/>
<path d="M21.5828 15.491C21.0428 15.153 20.3901 15.0265 19.7454 15.1345C19.1006 15.2427 18.5407 15.5727 18.1689 16.0636C17.4012 17.0771 17.6838 18.4694 18.7987 19.1672C19.2228 19.4327 19.7074 19.56 20.1871 19.56C20.9683 19.56 21.7371 19.2225 22.2127 18.5946C22.9803 17.5811 22.6977 16.1888 21.5828 15.491ZM21.0644 17.8759C20.7328 18.3137 20.071 18.4247 19.5894 18.1233C19.1077 17.8218 18.9856 17.2202 19.3172 16.7824C19.3173 16.7823 19.3173 16.7823 19.3173 16.7823C19.4779 16.5702 19.7198 16.4276 19.9984 16.3809C20.0633 16.3701 20.1284 16.3647 20.1931 16.3647C20.4058 16.3647 20.6133 16.4229 20.7923 16.5349C21.2739 16.8364 21.3961 17.438 21.0644 17.8759Z" fill="white" fill-opacity="0.87"/>
</g>
<defs>
<clipPath id="clip0_1_4810">
<rect width="26.4" height="24" fill="white"/>
</clipPath>
</defs>
</svg>
