<svg width="75" height="75" viewBox="0 0 75 75" fill="none" xmlns="http://www.w3.org/2000/svg">
<path d="M50.3687 54.5356L37.1737 58.0885L23.9785 54.5356L20.9337 21.5481H53.414L50.3687 54.5356Z" fill="#2062AF"/>
<path d="M37.1736 24.22V55.2547L37.2034 55.2629L47.8816 52.3875L50.3463 24.22H37.1736Z" fill="#3C9CD7"/>
<path d="M29.685 16.7016V14.7382H32.5496V12.5897H27.5366V18.6621H32.5496V16.7016H29.685ZM37.7027 14.7382H39.7055V12.5897H34.6919V14.7382C35.3627 15.4089 35.7125 15.7299 36.6826 16.7C36.1155 16.7 34.6919 16.7021 34.6919 16.702V18.6621H39.7055V16.7016L37.7027 14.7382ZM44.8085 14.7382H46.8112V12.5897H41.7974V14.7382C42.4682 15.4089 42.8182 15.7299 43.7883 16.7C43.2214 16.7 41.7974 16.7021 41.7974 16.702V18.6621H46.8113V16.7016L44.8085 14.7382Z" fill="black"/>
<path d="M37.1619 32.4682L27.7178 36.4014L28.031 40.2956L37.1619 36.3916L46.8748 32.2388L47.2775 28.2552L37.1619 32.4682Z" fill="white"/>
<path d="M27.7177 36.4015L28.0309 40.2956L37.1618 36.3916V32.4683L27.7177 36.4015Z" fill="url(#paint0_linear_1_4708)"/>
<path d="M47.2775 28.2554L37.1619 32.4683V36.3916L46.8748 32.2389L47.2775 28.2554Z" fill="url(#paint1_linear_1_4708)"/>
<path d="M27.7322 36.4015L28.0455 40.2957L42.0557 40.3403L41.7423 45.5325L37.1322 46.8304L32.7004 45.7114L32.4319 42.4887H28.3141L28.8512 48.7103L37.1769 51.172L45.4575 48.7549L46.5318 36.4015H27.7322Z" fill="url(#paint2_linear_1_4708)"/>
<path opacity="0.05" d="M37.1619 36.4015H27.7178L28.031 40.2957L37.1619 40.3248V36.4015ZM37.1619 46.818L37.1172 46.8305L32.686 45.7115L32.4175 42.4888H28.2997L28.8368 48.7104L37.1619 51.1721V46.818Z" fill="black"/>
<path d="M26.8673 28.2554H47.2776L46.8749 32.239H27.3596L26.8673 28.2554Z" fill="url(#paint3_linear_1_4708)"/>
<path opacity="0.05" d="M37.1619 28.2554H26.8673L27.3596 32.239H37.1619V28.2554Z" fill="black"/>
<path d="M37.25 1.87598C37.3853 1.79795 37.5483 1.78816 37.6904 1.84668L37.75 1.87598L68.2256 19.4717C68.3802 19.5609 68.4754 19.7258 68.4756 19.9043V55.0957C68.4754 55.2742 68.3802 55.4391 68.2256 55.5283L37.75 73.124C37.6147 73.2021 37.4517 73.2118 37.3096 73.1533L37.25 73.124L6.77441 55.5283C6.61983 55.4391 6.52456 55.2742 6.52441 55.0957V19.9043C6.52456 19.7258 6.61983 19.5609 6.77441 19.4717L37.25 1.87598Z" stroke="url(#paint4_linear_1_4708)" stroke-width="3"/>
<defs>
<linearGradient id="paint0_linear_1_4708" x1="32.4398" y1="40.2957" x2="32.4398" y2="32.4684" gradientUnits="userSpaceOnUse">
<stop offset="0.387" stop-color="#D1D3D4" stop-opacity="0"/>
<stop offset="1" stop-color="#D1D3D4"/>
</linearGradient>
<linearGradient id="paint1_linear_1_4708" x1="42.2196" y1="36.3917" x2="42.2196" y2="28.2555" gradientUnits="userSpaceOnUse">
<stop offset="0.387" stop-color="#D1D3D4" stop-opacity="0"/>
<stop offset="1" stop-color="#D1D3D4"/>
</linearGradient>
<linearGradient id="paint2_linear_1_4708" x1="27.7322" y1="43.7868" x2="46.5317" y2="43.7868" gradientUnits="userSpaceOnUse">
<stop stop-color="#E8E7E5"/>
<stop offset="1" stop-color="white"/>
</linearGradient>
<linearGradient id="paint3_linear_1_4708" x1="26.8673" y1="30.2472" x2="47.2775" y2="30.2472" gradientUnits="userSpaceOnUse">
<stop stop-color="#E8E7E5"/>
<stop offset="1" stop-color="white"/>
</linearGradient>
<linearGradient id="paint4_linear_1_4708" x1="69.6429" y1="75" x2="-9.86444" y2="24.6315" gradientUnits="userSpaceOnUse">
<stop stop-color="#0D54BE"/>
<stop offset="1" stop-color="#20ECD3"/>
</linearGradient>
</defs>
</svg>
