<svg width="75" height="75" viewBox="0 0 75 75" fill="none" xmlns="http://www.w3.org/2000/svg">
<path d="M37.25 1.87598C37.3853 1.79795 37.5483 1.78816 37.6904 1.84668L37.75 1.87598L68.2256 19.4717C68.3802 19.5609 68.4754 19.7258 68.4756 19.9043V55.0957C68.4754 55.2742 68.3802 55.4391 68.2256 55.5283L37.75 73.124C37.6147 73.2021 37.4517 73.2118 37.3096 73.1533L37.25 73.124L6.77441 55.5283C6.61983 55.4391 6.52456 55.2742 6.52441 55.0957V19.9043C6.52456 19.7258 6.61983 19.5609 6.77441 19.4717L37.25 1.87598Z" stroke="url(#paint0_linear_1_4729)" stroke-width="3"/>
<g clip-path="url(#clip0_1_4729)">
<path d="M18.261 49.5054C18.261 52.2922 20.52 54.5509 23.3065 54.5509H52.3457C55.1327 54.5509 57.3914 52.2919 57.3914 49.5054V20.4662C57.3914 17.6792 55.1324 15.4205 52.3459 15.4205H23.3066C20.5197 15.4205 18.261 17.6795 18.261 20.466V49.5052V49.5054Z" fill="#563D7C"/>
<path d="M34.4876 32.7293V27.1879H39.3653C39.8299 27.1879 40.2778 27.2266 40.7091 27.3041C41.1405 27.3814 41.5222 27.5196 41.854 27.7188C42.1857 27.9179 42.4512 28.1944 42.6504 28.5483C42.8494 28.9023 42.9491 29.3558 42.9491 29.9087C42.9491 30.9042 42.6504 31.6233 42.053 32.0656C41.4558 32.5081 40.6926 32.7293 39.7634 32.7293H34.4876ZM29.2779 23.1396V46.8318H40.759C41.8209 46.8318 42.8551 46.6992 43.8616 46.4337C44.8681 46.1682 45.764 45.759 46.5494 45.2059C47.3346 44.6529 47.9596 43.9394 48.4241 43.0657C48.8888 42.1918 49.121 41.1576 49.121 39.9631C49.121 38.4809 48.7615 37.2145 48.0426 36.1638C47.3236 35.1129 46.234 34.3774 44.774 33.957C45.8358 33.4483 46.6379 32.7956 47.1799 31.9993C47.7218 31.2029 47.9928 30.2075 47.9928 29.0128C47.9928 27.9068 47.8103 26.9777 47.4452 26.2255C47.0802 25.4735 46.5659 24.8707 45.9022 24.4171C45.2387 23.9636 44.4423 23.6373 43.5131 23.4383C42.584 23.2391 41.5553 23.1396 40.4271 23.1396H29.2779ZM34.4876 42.7835V36.2798H40.1616C41.2898 36.2798 42.1969 36.5396 42.8827 37.0596C43.5684 37.5795 43.9114 38.4477 43.9114 39.6644C43.9114 40.2839 43.8063 40.7926 43.5961 41.1908C43.3859 41.589 43.1039 41.9043 42.7499 42.1365C42.396 42.3688 41.9867 42.5347 41.5222 42.6343C41.0575 42.7337 40.571 42.7835 40.0621 42.7835H34.4876Z" fill="white"/>
</g>
<defs>
<linearGradient id="paint0_linear_1_4729" x1="69.6429" y1="75" x2="-9.86444" y2="24.6315" gradientUnits="userSpaceOnUse">
<stop stop-color="#0D54BE"/>
<stop offset="1" stop-color="#20ECD3"/>
</linearGradient>
<clipPath id="clip0_1_4729">
<rect width="39.1304" height="39.1304" fill="white" transform="translate(18.261 15.4205)"/>
</clipPath>
</defs>
</svg>
