<svg width="24" height="22" viewBox="0 0 24 22" fill="none" xmlns="http://www.w3.org/2000/svg">
<g id="gears-svgrepo-com 1" clip-path="url(#clip0_1_4844)">
<g id="Group">
<g id="bigg">
<g id="Group 15">
<path id="big-gear" d="M14.066 11.209L13.1247 10.3533C13.2274 10.1612 13.3173 9.9639 13.3942 9.76195H14.7253C15.1627 9.76195 15.5175 9.43953 15.5175 9.04181V6.93073C15.5175 6.53308 15.1628 6.21058 14.7253 6.21058H13.3941C13.3173 6.00871 13.2273 5.81139 13.1247 5.61929L14.066 4.76353C14.3754 4.48232 14.3754 4.02634 14.066 3.74513L12.424 2.25238C12.1146 1.97125 11.6132 1.97125 11.3038 2.25238L10.3624 3.10814C10.1511 3.01484 9.93414 2.93301 9.712 2.86322V1.65301C9.712 1.25536 9.35733 0.932861 8.91984 0.932861H6.59766C6.16024 0.932861 5.8055 1.25529 5.8055 1.65301V2.86322C5.58343 2.93308 5.36638 3.01477 5.15507 3.10814L4.21382 2.25238C4.06529 2.11736 3.86376 2.04147 3.65366 2.04147C3.44356 2.04147 3.2421 2.11736 3.0935 2.25238L1.45139 3.74513C1.30287 3.88015 1.21939 4.06337 1.21939 4.25437C1.21939 4.44537 1.30287 4.62851 1.45139 4.76361L2.39273 5.61936C2.2901 5.81139 2.20008 6.00871 2.12331 6.21066H0.792162C0.354667 6.21066 0 6.53308 0 6.93073V9.04188C0 9.43953 0.354667 9.76203 0.792162 9.76203H2.12331C2.20024 9.9639 2.2901 10.1612 2.39281 10.3534L1.45147 11.2091C1.14214 11.4903 1.14214 11.9463 1.45147 12.2275L3.0935 13.7202C3.40291 14.0013 3.90432 14.0014 4.21374 13.7202L5.15507 12.8645C5.3663 12.9578 5.58343 13.0397 5.8055 13.1095V14.3197C5.8055 14.7173 6.16016 15.0398 6.59766 15.0398H8.91992C9.35733 15.0398 9.71208 14.7174 9.71208 14.3197V13.1095C9.93406 13.0396 10.1512 12.9578 10.3625 12.8645L11.3038 13.7202C11.6133 14.0014 12.1147 14.0014 12.4241 13.7202L14.0661 12.2275C14.3754 11.9462 14.3754 11.4902 14.066 11.209ZM12.0265 8.88078C11.9174 9.31266 11.7309 9.72192 11.4722 10.0972C11.276 10.3815 11.3222 10.7515 11.5833 10.9888L12.3857 11.7182L11.8639 12.1927L11.0614 11.4631C10.8002 11.2258 10.3935 11.184 10.0806 11.3621C9.66772 11.5974 9.21762 11.7669 8.74279 11.866C8.38287 11.9411 8.12784 12.2323 8.12784 12.5679V13.5995H7.3899V12.5679C7.3899 12.2323 7.13487 11.9411 6.77495 11.866C6.30012 11.7669 5.85002 11.5974 5.43709 11.3621C5.12453 11.1841 4.71749 11.2257 4.45632 11.4631L3.65382 12.1927L3.13204 11.7182L3.93446 10.9888C4.19556 10.7514 4.24162 10.3815 4.04558 10.0972C3.78683 9.72192 3.60032 9.31266 3.49123 8.88078C3.40865 8.55365 3.0884 8.32181 2.71919 8.32181H1.58424V7.65095H2.71895C3.08808 7.65095 3.40832 7.41911 3.49099 7.09205C3.60016 6.6601 3.78659 6.25091 4.04533 5.87574C4.24154 5.59137 4.19539 5.22142 3.9343 4.98406L3.1318 4.25451L3.65366 3.78017L4.45608 4.50972C4.71717 4.74715 5.1242 4.7888 5.43693 4.61066C5.8497 4.37543 6.2998 4.20596 6.77471 4.10686C7.13463 4.03178 7.38966 3.74057 7.38966 3.40493V2.37316H8.1276V3.40478C8.1276 3.74043 8.38263 4.03156 8.74255 4.10671C9.21754 4.20581 9.66756 4.37529 10.0803 4.61051C10.3931 4.7888 10.8002 4.74708 11.0612 4.50957L11.8637 3.78002L12.3855 4.25437L11.5829 4.98392C11.3219 5.22135 11.2758 5.59123 11.4719 5.8756C11.7307 6.25077 11.9171 6.66002 12.0263 7.09191C12.1088 7.41896 12.4292 7.6508 12.7983 7.6508H13.933V8.32166H12.7983C12.4293 8.32173 12.1091 8.55358 12.0265 8.88078Z" fill="#E84949"/>
</g>
<path id="Vector" d="M7.75871 5.21912C6.08025 5.21912 4.71475 6.46048 4.71475 7.98635C4.71475 9.51223 6.08025 10.7536 7.75871 10.7536C9.43718 10.7536 10.8027 9.51223 10.8027 7.98635C10.8027 6.46048 9.43726 5.21912 7.75871 5.21912ZM7.75871 9.31337C6.95378 9.31337 6.29899 8.71811 6.29899 7.98635C6.29899 7.2546 6.95386 6.65934 7.75871 6.65934C8.56356 6.65934 9.21843 7.2546 9.21843 7.98635C9.21843 8.71811 8.56364 9.31337 7.75871 9.31337Z" fill="#E84949"/>
</g>
<g id="small">
<g id="Group 14">
<path id="small-gear" d="M23.4811 16.2414C23.8253 16.1837 24.0528 15.8833 23.9893 15.5704L23.6904 14.0973C23.66 13.947 23.565 13.8139 23.4267 13.7273C23.2882 13.6407 23.1175 13.6076 22.9523 13.6353L22.0731 13.7827C22.005 13.6763 21.9312 13.5729 21.8523 13.4729L22.3592 12.8035C22.4545 12.6776 22.4909 12.5226 22.4604 12.3723C22.43 12.222 22.335 12.089 22.1966 12.0024L20.8394 11.1529C20.5514 10.9725 20.1566 11.0385 19.9581 11.3006L19.4512 11.97C19.3202 11.9385 19.1877 11.9129 19.0541 11.893L18.8919 11.0938C18.8284 10.7809 18.4975 10.5738 18.1538 10.6318L16.5333 10.9035C16.368 10.9312 16.2217 11.0175 16.1264 11.1433C16.0311 11.2692 15.9947 11.4243 16.0251 11.5745L16.1873 12.3738C16.0702 12.4358 15.9565 12.5028 15.8465 12.5746L15.1102 12.1137C14.9717 12.0271 14.8011 11.9941 14.6359 12.0217C14.4706 12.0494 14.3242 12.1357 14.2289 12.2615L13.2945 13.4954C13.1991 13.6213 13.1628 13.7763 13.1932 13.9266C13.2237 14.0769 13.3186 14.21 13.4571 14.2966L14.1933 14.7573C14.1587 14.8765 14.1305 14.9968 14.1086 15.1184L13.2294 15.2658C13.0641 15.2935 12.9177 15.3799 12.8225 15.5056C12.7271 15.6315 12.6908 15.7866 12.7212 15.9368L13.0202 17.41C13.0837 17.7229 13.4141 17.93 13.7583 17.872L14.6375 17.7245C14.7056 17.8309 14.7794 17.9343 14.8583 18.0344L14.3514 18.7036C14.2562 18.8296 14.2197 18.9846 14.2502 19.1349C14.2807 19.2852 14.3756 19.4182 14.514 19.5048L15.8713 20.3543C16.1593 20.5347 16.5541 20.4686 16.7525 20.2066L17.2594 19.5373C17.3904 19.5687 17.5228 19.5943 17.6566 19.6143L17.8188 20.4135C17.8751 20.691 18.1415 20.8852 18.4412 20.8852C18.4794 20.8852 18.5181 20.8821 18.5569 20.8755L20.1773 20.6038C20.3426 20.5761 20.489 20.4898 20.5842 20.364C20.6795 20.2381 20.716 20.083 20.6855 19.9328L20.5233 19.1335C20.6404 19.0715 20.7541 19.0045 20.8642 18.9328L21.6003 19.3936C21.7388 19.4803 21.9093 19.5134 22.0747 19.4856C22.24 19.4579 22.3863 19.3716 22.4816 19.2458L23.4161 18.0119C23.6145 17.7499 23.5418 17.3912 23.2536 17.2108L22.5173 16.7499C22.5519 16.6308 22.5801 16.5104 22.602 16.3889L23.4811 16.2414ZM21.9066 15.3339C21.616 15.3826 21.4011 15.6074 21.3884 15.8757C21.3739 16.1824 21.3034 16.4826 21.179 16.7681C21.0701 17.0177 21.1654 17.3026 21.4087 17.4549L22.0129 17.8331L21.7972 18.118L21.1931 17.7398C20.9496 17.5875 20.6229 17.6083 20.4053 17.7898C20.1564 17.9973 19.873 18.1643 19.563 18.2861C19.2918 18.3926 19.1375 18.6554 19.1911 18.9194L19.3242 19.5754L18.9501 19.6382L18.8171 18.9822C18.7635 18.7181 18.5163 18.5227 18.2212 18.5112C17.8836 18.4979 17.5533 18.4338 17.2394 18.3208C17.1632 18.2934 17.0843 18.2802 17.0061 18.2802C16.8024 18.2802 16.605 18.3698 16.484 18.5296L16.068 19.0789L15.7546 18.8827L16.1706 18.3335C16.3381 18.1123 16.3153 17.8153 16.1156 17.6174C15.8874 17.3911 15.7037 17.1335 15.5696 16.8515C15.4524 16.6051 15.1627 16.4647 14.873 16.5136L14.1514 16.6346L14.0823 16.2945L14.804 16.1735C15.0946 16.1248 15.3095 15.9 15.3221 15.6318C15.3367 15.3251 15.4071 15.0249 15.5316 14.7393C15.6404 14.4896 15.5451 14.2048 15.3017 14.0525L14.6975 13.6744L14.9133 13.3895L15.5175 13.7677C15.761 13.9201 16.0875 13.8992 16.3052 13.7177C16.5542 13.5102 16.8376 13.3432 17.1477 13.2213C17.4188 13.1147 17.573 12.852 17.5194 12.588L17.3863 11.9321L17.7604 11.8693L17.8935 12.5253C17.9471 12.7894 18.1943 12.9849 18.4895 12.9963C18.8268 13.0095 19.157 13.0736 19.471 13.1867C19.7459 13.2858 20.0591 13.199 20.2265 12.9779L20.6426 12.4285L20.956 12.6247L20.54 13.1739C20.3724 13.3952 20.3952 13.6922 20.5949 13.8901C20.8232 14.1164 21.0069 14.3739 21.1409 14.6558C21.2579 14.9023 21.5473 15.0427 21.8375 14.9939L22.5591 14.8729L22.6281 15.213L21.9066 15.3339Z" fill="#E84949"/>
</g>
<path id="Vector_2" d="M19.6208 14.0827C19.1299 13.7755 18.5365 13.6605 17.9504 13.7587C17.3642 13.857 16.8552 14.157 16.5172 14.6033C15.8193 15.5246 16.0762 16.7904 17.0897 17.4247C17.4753 17.6661 17.9158 17.7818 18.3519 17.7818C19.0621 17.7818 19.761 17.475 20.1934 16.9042C20.8911 15.9828 20.6343 14.7171 19.6208 14.0827ZM19.1495 16.2508C18.848 16.6488 18.2464 16.7498 17.8086 16.4757C17.3707 16.2017 17.2596 15.6547 17.5611 15.2567C17.5612 15.2566 17.5612 15.2566 17.5612 15.2566C17.7071 15.0638 17.9271 14.9342 18.1804 14.8918C18.2393 14.8819 18.2986 14.877 18.3573 14.877C18.5507 14.877 18.7394 14.93 18.9021 15.0318C19.34 15.3059 19.451 15.8527 19.1495 16.2508Z" fill="#E84949"/>
</g>
</g>
</g>
<defs>
<clipPath id="clip0_1_4844">
<rect width="24" height="21.8182" fill="white"/>
</clipPath>
</defs>
</svg>
